{"title":"The Purge Anarchy 2014 CAM x264 AC3-MiLLENiUM","uid":10642780,"size":1396178290,"categoryP":"video","categoryS":"movies","magnet":"?xt=urn:btih:9b0a27f944cb6d268587c7b1222983fd827d02d7&amp;dn=The+Purge+Anarchy+2014+CAM+x264+AC3-MiLLENiUM&amp;tr=udp%3A%2F%2Ftracker.openbittorrent.com%3A80&amp;tr=udp%3A%2F%2Fopen.demonii.com%3A1337&amp;tr=udp%3A%2F%2Ftracker.coppersurfer.tk%3A6969&amp;tr=udp%3A%2F%2Fexodus.desync.com%3A6969","seeders":3,"leechers":0,"uploader":"lokioddin","files":5,"time":1406498248,"description":"SilverTorrent - Clean And Verified Torrents Download\n\n\n\nThe Purge Anarchy 2014 CAM READNFO x264 AC3-MiLLENiUM\n\n\n\nThe Purge Anarchy 2014 CAM READNFO x264 AC3-MiLLENiUM                  \n\nGeneral\n\nSource...............: Mr.Bootlegger [THANKS BRO]\nIMDb Information.... : http://www.imdb.com/title/tt2975578/\nSample Included......: yes\n\nNOTES: Right where to start... its dark..the end :lol: tryed to put a few filters over it to improve it, Audio is good english cam audio, so will do till something better comes along :) enjoy \n\nGeneral\nComplete name                            : The Purge Anarchy 2014 CAM x264 AC3-MiLLENiUM.mkv\nFormat                                   : Matroska\nFormat version                           : Version 2\nFile size                                : 1.26 GiB\nDuration                                 : 1h 35mn\nOverall bit rate mode                    : Variable\nOverall bit rate                         : 1 892 Kbps\nEncoded date                             : UTC 2014-07-27 18:54:23\nWriting application                      : mkvmerge v7.0.0 ('Where We Going') 32bit built on Jun  9 2014 15:08:34\nWriting library                          : libebml v1.3.0 + libmatroska v1.4.1\n\nVideo\nID                                       : 1\nFormat                                   : AVC\nFormat/Info                              : Advanced Video Codec\nFormat profile                           : &lt;a class=&quot;__cf_email__&quot; href=&quot;/cdn-cgi/l/email-protection&quot; data-cfemail=&quot;9fd7f6f8f7dfd3abb1ae&quot;&gt;[email&amp;#160;protected]&lt;/a&gt;&lt;script cf-hash='f9e31' type=&quot;text/javascript&quot;&gt;\n/* &lt;![CDATA[ */!function(){try{var t=&quot;currentScript&quot;in document?document.currentScript:function(){for(var t=document.getElementsByTagName(&quot;script&quot;),e=t.length;e--;)if(t[e].getAttribute(&quot;cf-hash&quot;))return t[e]}();if(t&amp;&amp;t.previousSibling){var e,r,n,i,c=t.previousSibling,a=c.getAttribute(&quot;data-cfemail&quot;);if(a){for(e=&quot;&quot;,r=parseInt(a.substr(0,2),16),n=2;a.length-n;n+=2)i=parseInt(a.substr(n,2),16)^r,e+=String.fromCharCode(i);e=document.createTextNode(e),c.parentNode.replaceChild(e,c)}}}catch(u){}}();/* ]]&gt; */&lt;/script&gt;\nFormat settings, CABAC                   : Yes\nFormat settings, ReFrames                : 3 frames\nCodec ID                                 : V_MPEG4/ISO/AVC\nDuration                                 : 1h 35mn\nBit rate mode                            : Variable\nBit rate                                 : 1 599 Kbps\nMaximum bit rate                         : 40.0 Mbps\nWidth                                    : 720 pixels\nHeight                                   : 364 pixels\nDisplay aspect ratio                     : 1.978\nFrame rate mode                          : Constant\nFrame rate                               : 29.970 fps\nColor space                              : YUV\nChroma subsampling                       : 4:2:0\nBit depth                                : 8 bits\nScan type                                : Progressive\nBits/(Pixel*Frame)                       : 0.204\nStream size                              : 1.07 GiB (84%)\nWriting library                          : x264 core 142 r2431 ac76440\n\nAudio\nID                                       : 2\nFormat                                   : AC-3\nFormat/Info                              : Audio Coding 3\nMode extension                           : CM (complete main)\nFormat settings, Endianness              : Big\nCodec ID                                 : A_AC3\nDuration                                 : 1h 35mn\nBit rate mode                            : Constant\nBit rate                                 : 256 Kbps\nChannel(s)                               : 2 channels\nChannel positions                        : Front: L R\nSampling rate                            : 48.0 KHz\nBit depth                                : 16 bits\nCompression mode                         : Lossy\nStream size                              : 175 MiB (14%)\nLanguage                                 : English\nDefault                                  : Yes\nForced                                   : No\n &lt;a href=&quot;\nhttp://s15.postimg.org/6yud678vf/vlcsnap_2014_07_27_20h55m49s101.jpg&quot; rel=&quot;nofollow&quot; target=&quot;_NEW&quot;&gt;\nhttp://s15.postimg.org/6yud678vf/vlcsnap_2014_07_27_20h55m49s101.jpg&lt;/a&gt;\n &lt;a href=&quot;\nhttp://s15.postimg.org/kehdvnhd7/vlcsnap_2014_07_27_20h58m49s104.jpg&quot; rel=&quot;nofollow&quot; target=&quot;_NEW&quot;&gt;\nhttp://s15.postimg.org/kehdvnhd7/vlcsnap_2014_07_27_20h58m49s104.jpg&lt;/a&gt;\n &lt;a href=&quot;\nhttp://s15.postimg.org/5c9qypm7f/vlcsnap_2014_07_27_21h00m06s104.jpg&quot; rel=&quot;nofollow&quot; target=&quot;_NEW&quot;&gt;\nhttp://s15.postimg.org/5c9qypm7f/vlcsnap_2014_07_27_21h00m06s104.jpg&lt;/a&gt;\n &lt;a href=&quot;\nhttp://s15.postimg.org/fv55a4zhn/vlcsnap_2014_07_27_21h09m48s30.jpg&quot; rel=&quot;nofollow&quot; target=&quot;_NEW&quot;&gt;\nhttp://s15.postimg.org/fv55a4zhn/vlcsnap_2014_07_27_21h09m48s30.jpg&lt;/a&gt;\n &lt;a href=&quot;\nhttp://s15.postimg.org/knjjzbjjf/vlcsnap_2014_07_27_21h12m33s154.jpg&quot; rel=&quot;nofollow&quot; target=&quot;_NEW&quot;&gt;\nhttp://s15.postimg.org/knjjzbjjf/vlcsnap_2014_07_27_21h12m33s154.jpg&lt;/a&gt;\n\n\nSilverTorrent - Clean And Verified Torrents Download\n\n","torrent":{"xt":"urn:btih:9b0a27f944cb6d268587c7b1222983fd827d02d7","amp;dn":"The+Purge+Anarchy+2014+CAM+x264+AC3-MiLLENiUM","amp;tr":["udp%3A%2F%2Ftracker.openbittorrent.com%3A80","udp%3A%2F%2Fopen.demonii.com%3A1337","udp%3A%2F%2Ftracker.coppersurfer.tk%3A6969","udp%3A%2F%2Fexodus.desync.com%3A6969"],"infoHash":"9b0a27f944cb6d268587c7b1222983fd827d02d7","infoHashBuffer":{"type":"Buffer","data":[155,10,39,249,68,203,109,38,133,135,199,177,34,41,131,253,130,125,2,215]},"announce":[],"urlList":[]}}